<svg width="188" height="29" viewBox="0 0 188 29" fill="none" xmlns="http://www.w3.org/2000/svg">
<path d="M0.275568 28V1.81818H10.6051C12.5909 1.81818 14.2827 2.19744 15.6804 2.95597C17.0781 3.70597 18.1435 4.75 18.8764 6.08807C19.6179 7.41761 19.9886 8.9517 19.9886 10.6903C19.9886 12.429 19.6136 13.9631 18.8636 15.2926C18.1136 16.6222 17.027 17.6577 15.6037 18.3991C14.1889 19.1406 12.4759 19.5114 10.4645 19.5114H3.88068V15.0753H9.5696C10.6349 15.0753 11.5128 14.892 12.2031 14.5256C12.902 14.1506 13.4219 13.6349 13.7628 12.9787C14.1122 12.3139 14.2869 11.5511 14.2869 10.6903C14.2869 9.82102 14.1122 9.0625 13.7628 8.41477C13.4219 7.75852 12.902 7.25142 12.2031 6.89347C11.5043 6.52699 10.6179 6.34375 9.54403 6.34375H5.81108V28H0.275568ZM30.6819 28V8.36364H36.1279V28H30.6819ZM33.4177 5.83239C32.608 5.83239 31.9134 5.56392 31.3339 5.02699C30.7629 4.48153 30.4773 3.82954 30.4773 3.07102C30.4773 2.32102 30.7629 1.67756 31.3339 1.14062C31.9134 0.59517 32.608 0.322442 33.4177 0.322442C34.2273 0.322442 34.9177 0.59517 35.4887 1.14062C36.0683 1.67756 36.358 2.32102 36.358 3.07102C36.358 3.82954 36.0683 4.48153 35.4887 5.02699C34.9177 5.56392 34.2273 5.83239 33.4177 5.83239ZM47.5882 28V24.7528L57.2018 12.8509V12.7102H47.9206V8.36364H63.7601V11.9048L54.7345 23.5128V23.6534H64.0925V28H47.5882ZM75.3546 28V24.7528L84.9683 12.8509V12.7102H75.687V8.36364H91.5265V11.9048L82.5009 23.5128V23.6534H91.8589V28H75.3546ZM108.823 28.3707C107.57 28.3707 106.453 28.1534 105.473 27.7188C104.493 27.2756 103.718 26.6236 103.147 25.7628C102.584 24.8935 102.303 23.8111 102.303 22.5156C102.303 21.4247 102.503 20.5085 102.904 19.767C103.304 19.0256 103.85 18.429 104.54 17.9773C105.23 17.5256 106.014 17.1847 106.892 16.9545C107.779 16.7244 108.708 16.5625 109.679 16.4688C110.821 16.3494 111.742 16.2386 112.441 16.1364C113.139 16.0256 113.647 15.8636 113.962 15.6506C114.277 15.4375 114.435 15.1222 114.435 14.7045V14.6278C114.435 13.8182 114.179 13.1918 113.668 12.7486C113.165 12.3054 112.449 12.0838 111.52 12.0838C110.54 12.0838 109.76 12.3011 109.181 12.7358C108.601 13.1619 108.218 13.6989 108.03 14.3466L102.993 13.9375C103.249 12.7443 103.752 11.7131 104.502 10.8438C105.252 9.96591 106.219 9.29261 107.404 8.82386C108.597 8.34659 109.978 8.10795 111.546 8.10795C112.637 8.10795 113.681 8.2358 114.678 8.49148C115.684 8.74716 116.574 9.14347 117.35 9.6804C118.134 10.2173 118.752 10.9077 119.203 11.7514C119.655 12.5866 119.881 13.5881 119.881 14.7557V28H114.716V25.277H114.563C114.247 25.8906 113.826 26.4318 113.297 26.9006C112.769 27.3608 112.134 27.723 111.392 27.9872C110.651 28.2429 109.794 28.3707 108.823 28.3707ZM110.382 24.6122C111.184 24.6122 111.891 24.4545 112.505 24.1392C113.118 23.8153 113.6 23.3807 113.949 22.8352C114.299 22.2898 114.473 21.6719 114.473 20.9815V18.8977C114.303 19.0085 114.068 19.1108 113.77 19.2045C113.48 19.2898 113.152 19.3707 112.786 19.4474C112.419 19.5156 112.053 19.5795 111.686 19.6392C111.32 19.6903 110.988 19.7372 110.689 19.7798C110.05 19.8736 109.492 20.0227 109.014 20.2273C108.537 20.4318 108.166 20.7088 107.902 21.0582C107.638 21.3991 107.506 21.8253 107.506 22.3366C107.506 23.0781 107.774 23.6449 108.311 24.0369C108.857 24.4205 109.547 24.6122 110.382 24.6122ZM131.306 28V8.36364H136.752V28H131.306ZM134.042 5.83239C133.232 5.83239 132.538 5.56392 131.958 5.02699C131.387 4.48153 131.102 3.82954 131.102 3.07102C131.102 2.32102 131.387 1.67756 131.958 1.14062C132.538 0.59517 133.232 0.322442 134.042 0.322442C134.852 0.322442 135.542 0.59517 136.113 1.14062C136.692 1.67756 136.982 2.32102 136.982 3.07102C136.982 3.82954 136.692 4.48153 136.113 5.02699C135.542 5.56392 134.852 5.83239 134.042 5.83239ZM148.315 28V8.36364H153.595V11.7898H153.799C154.157 10.571 154.758 9.65057 155.602 9.02841C156.445 8.39773 157.417 8.08239 158.516 8.08239C158.789 8.08239 159.083 8.09943 159.399 8.13352C159.714 8.16761 159.991 8.21449 160.229 8.27415V13.1065C159.974 13.0298 159.62 12.9616 159.168 12.902C158.717 12.8423 158.303 12.8125 157.928 12.8125C157.127 12.8125 156.411 12.9872 155.781 13.3366C155.158 13.6776 154.664 14.1548 154.298 14.7685C153.94 15.3821 153.761 16.0895 153.761 16.8906V28H148.315ZM178.28 28.3835C176.26 28.3835 174.521 27.9744 173.064 27.1562C171.615 26.3295 170.499 25.1619 169.715 23.6534C168.931 22.1364 168.538 20.3423 168.538 18.2713C168.538 16.2514 168.931 14.4787 169.715 12.9531C170.499 11.4276 171.602 10.2386 173.026 9.38636C174.458 8.53409 176.136 8.10795 178.063 8.10795C179.358 8.10795 180.564 8.31676 181.681 8.73438C182.806 9.14347 183.786 9.76136 184.621 10.5881C185.465 11.4148 186.121 12.4545 186.59 13.7074C187.058 14.9517 187.293 16.4091 187.293 18.0795V19.5753H170.712V16.2003H182.166C182.166 15.4162 181.996 14.7216 181.655 14.1165C181.314 13.5114 180.841 13.0384 180.236 12.6974C179.639 12.348 178.945 12.1733 178.152 12.1733C177.325 12.1733 176.592 12.3651 175.953 12.7486C175.323 13.1236 174.828 13.6307 174.47 14.2699C174.112 14.9006 173.929 15.6037 173.921 16.3793V19.5881C173.921 20.5597 174.1 21.3991 174.458 22.1065C174.824 22.8139 175.34 23.3594 176.004 23.7429C176.669 24.1264 177.458 24.3182 178.369 24.3182C178.975 24.3182 179.529 24.233 180.031 24.0625C180.534 23.892 180.965 23.6364 181.323 23.2955C181.681 22.9545 181.953 22.5369 182.141 22.0426L187.178 22.375C186.922 23.5852 186.398 24.642 185.605 25.5455C184.821 26.4403 183.807 27.1392 182.563 27.642C181.327 28.1364 179.899 28.3835 178.28 28.3835Z" fill="white"/>
</svg>
