<svg width="32" height="27" viewBox="0 0 32 27" fill="none" xmlns="http://www.w3.org/2000/svg">
<path d="M25.9467 18.8402H11.3262C10.779 18.8402 10.2962 18.4829 10.1362 17.9595L5.40409 2.48889H1.24445C0.557156 2.48889 0 1.93173 0 1.24445C0 0.557156 0.557156 0 1.24445 0H6.32498C6.87218 0 7.35503 0.357334 7.51503 0.880356L12.2471 16.3513H25.1197L28.8832 7.39449H16C15.3127 7.39449 14.7556 6.83734 14.7556 6.15005C14.7556 5.46276 15.3127 4.9056 16 4.9056H30.7556C31.1723 4.9056 31.5616 5.11431 31.792 5.46134C32.0224 5.80836 32.0644 6.24783 31.903 6.63218L27.0937 18.0779C26.8996 18.5397 26.4477 18.8402 25.9467 18.8402Z" fill="white"/>
<path d="M10.2686 26.4832C11.4782 26.4832 12.4588 25.5026 12.4588 24.293C12.4588 23.0834 11.4782 22.1028 10.2686 22.1028C9.05897 22.1028 8.07837 23.0834 8.07837 24.293C8.07837 25.5026 9.05897 26.4832 10.2686 26.4832Z" fill="white"/>
<path d="M26.5208 26.4832C27.7304 26.4832 28.711 25.5026 28.711 24.293C28.711 23.0834 27.7304 22.1028 26.5208 22.1028C25.3112 22.1028 24.3306 23.0834 24.3306 24.293C24.3306 25.5026 25.3112 26.4832 26.5208 26.4832Z" fill="white"/>
</svg>
